<svg width="1382" height="1396" viewBox="0 0 1382 1396" fill="none" xmlns="http://www.w3.org/2000/svg">
<path d="M690.568 697.886L583.335 21.9873C657.931 10.1288 722.666 10.0966 797.262 21.8938L690.568 697.886Z" fill="url(#paint0_linear_811_3956)"/>
<path d="M690.567 697.886L206.88 214.17C260.268 160.691 312.624 122.584 379.904 88.2424L690.567 697.886V697.886Z" fill="url(#paint1_linear_811_3956)"/>
<path d="M690.567 697.886L15.1837 591.12C26.963 516.457 46.9446 454.826 81.2031 387.449L690.558 697.876L690.567 697.886Z" fill="url(#paint2_linear_811_3956)"/>
<path d="M690.567 697.886L81.4583 1008.85C47.1397 941.509 27.1148 879.901 15.2696 805.238L690.567 697.886V697.886Z" fill="url(#paint3_linear_811_3956)"/>
<path d="M690.568 697.886L380.397 1307.8C313.092 1273.51 260.707 1235.45 207.277 1182.01L690.568 697.876L690.568 697.886Z" fill="url(#paint4_linear_811_3956)"/>
<path d="M690.567 697.886L797.8 1373.79C723.204 1385.64 658.469 1385.68 583.874 1373.88L690.567 697.886Z" fill="url(#paint5_linear_811_3956)"/>
<path d="M690.567 697.886L1174.26 1181.6C1120.87 1235.08 1068.51 1273.19 1001.23 1307.53L690.567 697.886V697.886Z" fill="url(#paint6_linear_811_3956)"/>
<path d="M690.567 697.886L1365.95 804.652C1354.17 879.315 1334.19 940.947 1299.92 1008.32L690.567 697.896L690.567 697.886Z" fill="url(#paint7_linear_811_3956)"/>
<path d="M690.567 697.886L1299.68 386.924C1334 454.263 1354.02 515.872 1365.87 590.534L690.567 697.886V697.886Z" fill="url(#paint8_linear_811_3956)"/>
<path d="M690.567 697.886L1000.74 87.9751C1068.04 122.262 1120.43 160.324 1173.86 213.758L690.557 697.896L690.567 697.886Z" fill="url(#paint9_linear_811_3956)"/>
<defs>
<linearGradient id="paint0_linear_811_3956" x1="693.5" y1="714" x2="780.73" y2="2.56312" gradientUnits="userSpaceOnUse">
<stop stop-color="#D0D7DC"/>
<stop offset="1" stop-color="#D0D7DC" stop-opacity="0"/>
</linearGradient>
<linearGradient id="paint1_linear_811_3956" x1="695" y1="711.422" x2="671.725" y2="152.747" gradientUnits="userSpaceOnUse">
<stop stop-color="#D0D7DC"/>
<stop offset="1" stop-color="#D0D7DC" stop-opacity="0"/>
</linearGradient>
<linearGradient id="paint2_linear_811_3956" x1="696.888" y1="704.662" x2="653.105" y2="453.839" gradientUnits="userSpaceOnUse">
<stop stop-color="#D0D7DC"/>
<stop offset="1" stop-color="#D0D7DC" stop-opacity="0"/>
</linearGradient>
<linearGradient id="paint3_linear_811_3956" x1="703" y1="684.921" x2="34.0001" y2="904.421" gradientUnits="userSpaceOnUse">
<stop stop-color="#D0D7DC"/>
<stop offset="1" stop-color="#D0D7DC" stop-opacity="0"/>
</linearGradient>
<linearGradient id="paint4_linear_811_3956" x1="691" y1="697.422" x2="280.542" y2="852.052" gradientUnits="userSpaceOnUse">
<stop stop-color="#D0D7DC"/>
<stop offset="1" stop-color="#D0D7DC" stop-opacity="0"/>
</linearGradient>
<linearGradient id="paint5_linear_811_3956" x1="704.02" y1="698.149" x2="690.661" y2="1382.82" gradientUnits="userSpaceOnUse">
<stop stop-color="#D0D7DC"/>
<stop offset="1" stop-color="#D0D7DC" stop-opacity="0"/>
</linearGradient>
<linearGradient id="paint6_linear_811_3956" x1="692.5" y1="697.922" x2="736.849" y2="1226.79" gradientUnits="userSpaceOnUse">
<stop stop-color="#D0D7DC"/>
<stop offset="1" stop-color="#D0D7DC" stop-opacity="0"/>
</linearGradient>
<linearGradient id="paint7_linear_811_3956" x1="685" y1="697.922" x2="749.484" y2="957.15" gradientUnits="userSpaceOnUse">
<stop stop-color="#D0D7DC"/>
<stop offset="1" stop-color="#D0D7DC" stop-opacity="0"/>
</linearGradient>
<linearGradient id="paint8_linear_811_3956" x1="691" y1="701.922" x2="931.516" y2="918.702" gradientUnits="userSpaceOnUse">
<stop stop-color="#D0D7DC"/>
<stop offset="1" stop-color="#D0D7DC" stop-opacity="0"/>
</linearGradient>
<linearGradient id="paint9_linear_811_3956" x1="1168.48" y1="720.946" x2="1142.57" y2="151.033" gradientUnits="userSpaceOnUse">
<stop stop-color="#D0D7DC"/>
<stop offset="1" stop-color="#D0D7DC" stop-opacity="0"/>
</linearGradient>
</defs>
</svg>
