<svg width="149" height="44" viewBox="0 0 149 44" fill="none" xmlns="http://www.w3.org/2000/svg">
<path d="M142.76 43.4307H5.57098C2.55419 43.4307 0.0834198 41.0183 0.0834198 38.0729V5.92654C0.0834198 2.98113 2.55419 0.568813 5.57098 0.568813H142.76C145.777 0.568813 148.247 2.98113 148.247 5.92654V38.0729C148.247 41.0183 145.777 43.4307 142.76 43.4307Z" fill="black"/>
<path d="M142.76 1.42739C145.301 1.42739 147.368 3.44592 147.368 5.92654V38.0729C147.368 40.5536 145.301 42.5721 142.76 42.5721H5.57098C3.03024 42.5721 0.9628 40.5536 0.9628 38.0729V5.92654C0.9628 3.44592 3.03024 1.42739 5.57098 1.42739H142.76ZM142.76 0.568813H5.57098C2.55419 0.568813 0.0834198 2.98113 0.0834198 5.92654V38.0729C0.0834198 41.0183 2.55419 43.4307 5.57098 43.4307H142.76C145.777 43.4307 148.247 41.0183 148.247 38.0729V5.92654C148.247 2.98113 145.777 0.568813 142.76 0.568813Z" fill="#A6A6A6"/>
<path d="M52.1247 11.5453C52.1247 12.44 51.8503 13.1566 51.3098 13.6911C50.6883 14.3246 49.8789 14.6434 48.887 14.6434C47.939 14.6434 47.1296 14.3193 46.4656 13.6803C45.8002 13.0321 45.4682 12.2364 45.4682 11.2841C45.4682 10.3318 45.8002 9.53614 46.4656 8.89322C47.1296 8.24895 47.939 7.9248 48.887 7.9248C49.3589 7.9248 49.8089 8.0199 50.2383 8.19671C50.6663 8.37485 51.0148 8.61595 51.2672 8.91331L50.6938 9.47855C50.2534 8.9709 49.6539 8.72043 48.887 8.72043C48.1956 8.72043 47.596 8.95617 47.0871 9.43167C46.5836 9.9085 46.3312 10.526 46.3312 11.2841C46.3312 12.0422 46.5836 12.6651 47.0871 13.1419C47.596 13.612 48.1956 13.8531 48.887 13.8531C49.621 13.8531 50.2383 13.612 50.7253 13.1365C51.0464 12.8218 51.2288 12.3878 51.2768 11.8333H48.887V11.0591H52.0753C52.1137 11.2265 52.1247 11.3886 52.1247 11.5453Z" fill="white" stroke="white" stroke-width="0.16" stroke-miterlimit="10"/>
<path d="M57.1828 8.86119H54.188V10.8971H56.8879V11.6713H54.188V13.7073H57.1828V14.4962H53.3401V8.07227H57.1828V8.86119Z" fill="white" stroke="white" stroke-width="0.16" stroke-miterlimit="10"/>
<path d="M60.7524 14.4962H59.9046V8.86119H58.0677V8.07227H62.5908V8.86119H60.7524V14.4962Z" fill="white" stroke="white" stroke-width="0.16" stroke-miterlimit="10"/>
<path d="M65.8641 14.4962V8.07227H66.7106V14.4962H65.8641Z" fill="white" stroke="white" stroke-width="0.16" stroke-miterlimit="10"/>
<path d="M70.4627 14.4962H69.6217V8.86119H67.7779V8.07227H72.3065V8.86119H70.4627V14.4962Z" fill="white" stroke="white" stroke-width="0.16" stroke-miterlimit="10"/>
<path d="M80.8698 13.6696C80.2209 14.3193 79.417 14.6434 78.4581 14.6434C77.4936 14.6434 76.6897 14.3193 76.0408 13.6696C75.3933 13.0213 75.0709 12.2257 75.0709 11.2841C75.0709 10.3425 75.3933 9.54686 76.0408 8.89857C76.6897 8.24895 77.4936 7.9248 78.4581 7.9248C79.4115 7.9248 80.2155 8.24895 80.8644 8.90393C81.5174 9.55757 81.8398 10.3478 81.8398 11.2841C81.8398 12.2257 81.5174 13.0213 80.8698 13.6696ZM76.6677 13.1312C77.1561 13.612 77.7502 13.8531 78.4581 13.8531C79.1605 13.8531 79.76 13.612 80.2429 13.1312C80.7299 12.6503 80.9768 12.0328 80.9768 11.2841C80.9768 10.5354 80.7299 9.91788 80.2429 9.43703C79.76 8.95617 79.1605 8.71507 78.4581 8.71507C77.7502 8.71507 77.1561 8.95617 76.6677 9.43703C76.1807 9.91788 75.9338 10.5354 75.9338 11.2841C75.9338 12.0328 76.1807 12.6503 76.6677 13.1312Z" fill="white" stroke="white" stroke-width="0.16" stroke-miterlimit="10"/>
<path d="M83.0292 14.4962V8.07227H84.0581L87.2573 13.0683H87.2944L87.2573 11.8334V8.07227H88.1038V14.4962H87.2203L83.8701 9.25364H83.8331L83.8701 10.494V14.4962H83.0292Z" fill="white" stroke="white" stroke-width="0.16" stroke-miterlimit="10"/>
<path d="M74.8623 23.8777C72.2845 23.8777 70.1787 25.7931 70.1787 28.4358C70.1787 31.057 72.2845 32.9925 74.8623 32.9925C77.4456 32.9925 79.5514 31.057 79.5514 28.4358C79.5514 25.7931 77.4456 23.8777 74.8623 23.8777ZM74.8623 31.1977C73.4479 31.1977 72.231 30.0578 72.231 28.4358C72.231 26.7923 73.4479 25.6725 74.8623 25.6725C76.2767 25.6725 77.4991 26.7923 77.4991 28.4358C77.4991 30.0578 76.2767 31.1977 74.8623 31.1977ZM64.6431 23.8777C62.0599 23.8777 59.9595 25.7931 59.9595 28.4358C59.9595 31.057 62.0599 32.9925 64.6431 32.9925C67.225 32.9925 69.3267 31.057 69.3267 28.4358C69.3267 25.7931 67.225 23.8777 64.6431 23.8777ZM64.6431 31.1977C63.2273 31.1977 62.0063 30.0578 62.0063 28.4358C62.0063 26.7923 63.2273 25.6725 64.6431 25.6725C66.0575 25.6725 67.2744 26.7923 67.2744 28.4358C67.2744 30.0578 66.0575 31.1977 64.6431 31.1977ZM52.4827 25.2747V27.2115H57.2198C57.0813 28.2938 56.7109 29.0894 56.1429 29.6439C55.4515 30.3136 54.3745 31.057 52.4827 31.057C49.5674 31.057 47.2846 28.7599 47.2846 25.9136C47.2846 23.0673 49.5674 20.7702 52.4827 20.7702C54.059 20.7702 55.2059 21.3716 56.0524 22.1511L57.4503 20.7863C56.2664 19.6826 54.6914 18.8347 52.4827 18.8347C48.485 18.8347 45.1253 22.0105 45.1253 25.9136C45.1253 29.8167 48.485 32.9925 52.4827 32.9925C54.6434 32.9925 56.2664 32.3014 57.5422 31.0048C58.8496 29.7283 59.2571 27.9335 59.2571 26.4842C59.2571 26.0342 59.2187 25.6203 59.1501 25.2747H52.4827ZM102.208 26.7762C101.823 25.7569 100.633 23.8777 98.2105 23.8777C95.8097 23.8777 93.8108 25.7247 93.8108 28.4358C93.8108 30.9887 95.7891 32.9925 98.441 32.9925C100.585 32.9925 101.823 31.716 102.332 30.9726L100.74 29.9373C100.209 30.6954 99.4863 31.1977 98.441 31.1977C97.4024 31.1977 96.6575 30.7329 96.1801 29.8167L102.424 27.2946L102.208 26.7762ZM95.8426 28.2938C95.7891 26.5364 97.2406 25.6363 98.2805 25.6363C99.0954 25.6363 99.7868 26.0342 100.017 26.6034L95.8426 28.2938ZM90.768 32.7152H92.8203V19.3209H90.768V32.7152ZM87.4069 24.893H87.3383C86.8773 24.3599 85.9979 23.8777 84.884 23.8777C82.5463 23.8777 80.4089 25.8815 80.4089 28.4505C80.4089 31.0048 82.5463 32.9925 84.884 32.9925C85.9979 32.9925 86.8773 32.5063 87.3383 31.9571H87.4069V32.6108C87.4069 34.3534 86.4534 35.2896 84.9155 35.2896C83.6616 35.2896 82.8838 34.4056 82.5627 33.6622L80.7779 34.3895C81.2924 35.5977 82.6546 37.0845 84.9155 37.0845C87.3218 37.0845 89.3522 35.7022 89.3522 32.3389V24.1549H87.4069V24.893ZM85.0596 31.1977C83.6452 31.1977 82.4612 30.0417 82.4612 28.4505C82.4612 26.8445 83.6452 25.6725 85.0596 25.6725C86.4534 25.6725 87.5523 26.8445 87.5523 28.4505C87.5523 30.0417 86.4534 31.1977 85.0596 31.1977ZM111.817 19.3209H106.908V32.7152H108.955V27.6401H111.817C114.09 27.6401 116.319 26.0342 116.319 23.4799C116.319 20.9269 114.085 19.3209 111.817 19.3209ZM111.87 25.777H108.955V21.1841H111.87C113.399 21.1841 114.271 22.423 114.271 23.4799C114.271 24.5166 113.399 25.777 111.87 25.777ZM124.523 23.8522C123.044 23.8522 121.507 24.4898 120.874 25.9029L122.69 26.6463C123.081 25.9029 123.8 25.6618 124.56 25.6618C125.622 25.6618 126.699 26.2846 126.716 27.3843V27.5249C126.345 27.316 125.552 27.0066 124.577 27.0066C122.621 27.0066 120.627 28.058 120.627 30.0203C120.627 31.8151 122.23 32.9711 124.031 32.9711C125.408 32.9711 126.168 32.3643 126.646 31.6584H126.716V32.6938H128.692V27.5558C128.692 25.1809 126.876 23.8522 124.523 23.8522ZM124.276 31.1923C123.607 31.1923 122.674 30.8682 122.674 30.0578C122.674 29.0211 123.837 28.6233 124.844 28.6233C125.746 28.6233 126.168 28.8175 126.716 29.0733C126.555 30.3136 125.462 31.1923 124.276 31.1923ZM135.895 24.1456L133.542 29.952H133.472L131.04 24.1456H128.832L132.487 32.2598L130.402 36.7751H132.541L138.172 24.1456H135.895ZM117.444 32.7152H119.497V19.3209H117.444V32.7152Z" fill="white"/>
<path d="M11.5359 8.64687C11.2136 8.97637 11.027 9.48937 11.027 10.1537V33.851C11.027 34.5153 11.2136 35.0283 11.5359 35.3578L11.6155 35.4302L25.2164 22.1564V21.843L11.6155 8.56919L11.5359 8.64687Z" fill="url(#paint0_linear_748_6489)"/>
<path d="M29.745 26.583L25.2164 22.1562V21.8428L29.7505 17.4159L29.852 17.4735L35.2216 20.4564C36.754 21.303 36.754 22.696 35.2216 23.5479L29.852 26.5254L29.745 26.583Z" fill="url(#paint1_linear_748_6489)"/>
<path d="M29.852 26.5253L25.2164 21.9994L11.5359 35.3575C12.0449 35.8799 12.8749 35.9429 13.8188 35.4205L29.852 26.5253Z" fill="url(#paint2_linear_748_6489)"/>
<path d="M29.852 17.4736L13.8188 8.5784C12.8749 8.06137 12.0449 8.12433 11.5359 8.6467L25.2164 21.9995L29.852 17.4736Z" fill="url(#paint3_linear_748_6489)"/>
<defs>
<linearGradient id="paint0_linear_748_6489" x1="24.0088" y1="34.0978" x2="6.03086" y2="15.6842" gradientUnits="userSpaceOnUse">
<stop stop-color="#00A0FF"/>
<stop offset="0.0066" stop-color="#00A1FF"/>
<stop offset="0.2601" stop-color="#00BEFF"/>
<stop offset="0.5122" stop-color="#00D2FF"/>
<stop offset="0.7604" stop-color="#00DFFF"/>
<stop offset="1" stop-color="#00E3FF"/>
</linearGradient>
<linearGradient id="paint1_linear_748_6489" x1="37.217" y1="21.998" x2="10.6607" y2="21.998" gradientUnits="userSpaceOnUse">
<stop stop-color="#FFE000"/>
<stop offset="0.4087" stop-color="#FFBD00"/>
<stop offset="0.7754" stop-color="#FFA500"/>
<stop offset="1" stop-color="#FF9C00"/>
</linearGradient>
<linearGradient id="paint2_linear_748_6489" x1="27.3313" y1="19.539" x2="2.95175" y2="-5.43132" gradientUnits="userSpaceOnUse">
<stop stop-color="#FF3A44"/>
<stop offset="1" stop-color="#C31162"/>
</linearGradient>
<linearGradient id="paint3_linear_748_6489" x1="8.09229" y1="43.2416" x2="18.9789" y2="32.0914" gradientUnits="userSpaceOnUse">
<stop stop-color="#32A071"/>
<stop offset="0.0685" stop-color="#2DA771"/>
<stop offset="0.4762" stop-color="#15CF74"/>
<stop offset="0.8009" stop-color="#06E775"/>
<stop offset="1" stop-color="#00F076"/>
</linearGradient>
</defs>
</svg>
