<svg width="16" height="14" viewBox="0 0 16 14" fill="none" xmlns="http://www.w3.org/2000/svg">
<path d="M4 9.99413L4.25712 9.56531L4.13841 9.49413H4V9.99413ZM4 3.99804V4.49804H4.13841L4.25712 4.42686L4 3.99804ZM9 1H9.5C9.5 0.81989 9.40313 0.653698 9.24641 0.564935C9.08969 0.476173 8.89735 0.478558 8.74288 0.57118L9 1ZM9 12.9922L8.74288 13.421C8.89735 13.5136 9.08969 13.516 9.24641 13.4272C9.40313 13.3385 9.5 13.1723 9.5 12.9922H9ZM4 9.49413H2V10.4941H4V9.49413ZM2 9.49413C1.72351 9.49413 1.5 9.27065 1.5 8.99478H0.5C0.5 9.8242 1.17249 10.4941 2 10.4941V9.49413ZM1.5 8.99478V4.99739H0.5V8.99478H1.5ZM1.5 4.99739C1.5 4.72153 1.72351 4.49804 2 4.49804V3.49804C1.17249 3.49804 0.5 4.16798 0.5 4.99739H1.5ZM2 4.49804H4V3.49804H2V4.49804ZM4.25712 4.42686L9.25712 1.42882L8.74288 0.57118L3.74288 3.56922L4.25712 4.42686ZM9.25712 12.5634L4.25712 9.56531L3.74288 10.423L8.74288 13.421L9.25712 12.5634ZM10.5 5.5V8.5H11.5V5.5H10.5ZM12.5 3.5V10.5H13.5V3.5H12.5ZM14.5 1.5V12.5H15.5V1.5H14.5ZM8.5 1V6.99609H9.5V1H8.5ZM8.5 6.99609V12.9922H9.5V6.99609H8.5Z" fill="#283844"/>
</svg>
