<svg width="149" height="44" viewBox="0 0 149 44" fill="none" xmlns="http://www.w3.org/2000/svg">
<path d="M147.544 38.488C147.544 40.7721 145.655 42.6224 143.319 42.6224H5.05476C2.71967 42.6224 0.824266 40.7721 0.824266 38.488V5.5177C0.824266 3.23462 2.71967 1.37793 5.05476 1.37793H143.318C145.655 1.37793 147.543 3.23462 147.543 5.5177L147.544 38.488Z" fill="black"/>
<path d="M142.873 1.42836C145.417 1.42836 147.487 3.44689 147.487 5.92752V38.0739C147.487 40.5545 145.417 42.5731 142.873 42.5731H5.49511C2.95087 42.5731 0.880591 40.5545 0.880591 38.0739V5.92752C0.880591 3.44689 2.95087 1.42836 5.49511 1.42836H142.873ZM142.873 0.569785H5.49511C2.47417 0.569785 0 2.98211 0 5.92752V38.0739C0 41.0193 2.47417 43.4316 5.49511 43.4316H142.873C145.894 43.4316 148.368 41.0193 148.368 38.0739V5.92752C148.368 2.98211 145.894 0.569785 142.873 0.569785Z" fill="#A6A6A6"/>
<path d="M33.1113 21.7691C33.0795 18.3155 36.0117 16.6353 36.1457 16.5571C34.4851 14.1965 31.9112 13.874 31.0067 13.8482C28.8449 13.6264 26.748 15.1095 25.6468 15.1095C24.5236 15.1095 22.8278 13.8697 21.0001 13.9061C18.6482 13.9415 16.448 15.2691 15.2412 17.3308C12.7509 21.5344 14.6082 27.7119 16.9942 31.1098C18.1877 32.7739 19.5824 34.632 21.4079 34.5666C23.1938 34.4948 23.8609 33.4565 26.0161 33.4565C28.1515 33.4565 28.7779 34.5666 30.6396 34.5248C32.5563 34.4948 33.7631 32.8532 34.9148 31.1741C36.2941 29.2667 36.848 27.3883 36.87 27.2919C36.8249 27.2769 33.1476 25.9085 33.1113 21.7691Z" fill="white"/>
<path d="M29.5945 11.613C30.555 10.4418 31.2122 8.84841 31.0298 7.23145C29.6395 7.29145 27.9009 8.16905 26.8997 9.31453C26.0139 10.3239 25.2226 11.9784 25.427 13.5343C26.9887 13.6479 28.5922 12.766 29.5945 11.613Z" fill="white"/>
<path d="M58.957 34.3275H56.4612L55.094 30.1388H50.3418L49.0395 34.3275H46.6095L51.3177 20.0674H54.2257L58.957 34.3275ZM54.6818 28.3815L53.4454 24.6579C53.3147 24.2775 53.0696 23.3817 52.708 21.9715H52.664C52.5201 22.578 52.2882 23.4738 51.9694 24.6579L50.755 28.3815H54.6818Z" fill="white"/>
<path d="M71.0649 29.0599C71.0649 30.8087 70.5803 32.191 69.6109 33.2057C68.7427 34.109 67.6646 34.5602 66.3776 34.5602C64.9884 34.5602 63.9905 34.0737 63.3828 33.1007H63.3388V38.5174H60.9957V27.4301C60.9957 26.3307 60.966 25.2023 60.9089 24.0451H62.9695L63.1003 25.6749H63.1443C63.9257 24.4469 65.1115 23.834 66.7029 23.834C67.947 23.834 68.9856 24.313 69.8165 25.272C70.6495 26.2321 71.0649 27.4944 71.0649 29.0599ZM68.6779 29.1435C68.6779 28.1427 68.4471 27.3176 67.9833 26.6682C67.4766 25.991 66.7963 25.6524 65.9435 25.6524C65.3654 25.6524 64.8401 25.841 64.3708 26.2128C63.9004 26.5879 63.5927 27.0776 63.4487 27.6841C63.3762 27.9669 63.3399 28.1984 63.3399 28.3806V30.095C63.3399 30.843 63.5751 31.4741 64.0455 31.9895C64.5159 32.5049 65.1269 32.7621 65.8787 32.7621C66.7612 32.7621 67.4481 32.4299 67.9393 31.7677C68.4317 31.1044 68.6779 30.23 68.6779 29.1435Z" fill="white"/>
<path d="M83.1949 29.0599C83.1949 30.8087 82.7102 32.191 81.7398 33.2057C80.8726 34.109 79.7945 34.5602 78.5075 34.5602C77.1184 34.5602 76.1205 34.0737 75.5138 33.1007H75.4698V38.5174H73.1267V27.4301C73.1267 26.3307 73.0971 25.2023 73.0399 24.0451H75.1006L75.2314 25.6749H75.2753C76.0556 24.4469 77.2415 23.834 78.834 23.834C80.0769 23.834 81.1155 24.313 81.9486 25.272C82.7783 26.2321 83.1949 27.4944 83.1949 29.0599ZM80.8078 29.1435C80.8078 28.1427 80.5759 27.3176 80.1121 26.6682C79.6055 25.991 78.9274 25.6524 78.0734 25.6524C77.4942 25.6524 76.97 25.841 76.4996 26.2128C76.0292 26.5879 75.7226 27.0776 75.5786 27.6841C75.5072 27.9669 75.4698 28.1984 75.4698 28.3806V30.095C75.4698 30.843 75.705 31.4741 76.1732 31.9895C76.6436 32.5039 77.2547 32.7621 78.0086 32.7621C78.8911 32.7621 79.578 32.4299 80.0693 31.7677C80.5616 31.1044 80.8078 30.23 80.8078 29.1435Z" fill="white"/>
<path d="M96.7568 30.3285C96.7568 31.5415 96.3249 32.5284 95.4577 33.2902C94.5049 34.1228 93.1784 34.5386 91.4738 34.5386C89.9 34.5386 88.6383 34.2428 87.6833 33.6503L88.2262 31.7461C89.2549 32.3526 90.3836 32.657 91.6134 32.657C92.4959 32.657 93.1828 32.4619 93.6762 32.074C94.1675 31.6861 94.4126 31.1654 94.4126 30.516C94.4126 29.9374 94.2103 29.4498 93.8048 29.0544C93.4015 28.659 92.7278 28.2915 91.787 27.9518C89.2263 27.0206 87.947 25.6565 87.947 23.8628C87.947 22.6905 88.3954 21.7293 89.2933 20.9814C90.1879 20.2324 91.3815 19.8584 92.8739 19.8584C94.2049 19.8584 95.3105 20.0845 96.193 20.5356L95.6072 22.398C94.7829 21.9608 93.851 21.7422 92.808 21.7422C91.9837 21.7422 91.3397 21.9404 90.8781 22.3347C90.488 22.6873 90.2923 23.117 90.2923 23.626C90.2923 24.1896 90.5154 24.6557 90.9638 25.0222C91.354 25.3608 92.0629 25.7273 93.0915 26.1227C94.3499 26.6166 95.2742 27.1942 95.8688 27.8564C96.4612 28.5165 96.7568 29.3427 96.7568 30.3285Z" fill="white"/>
<path d="M104.504 25.7595H101.921V30.7518C101.921 32.0216 102.376 32.6559 103.288 32.6559C103.707 32.6559 104.054 32.6206 104.329 32.5498L104.394 34.2847C103.932 34.4529 103.325 34.5376 102.572 34.5376C101.646 34.5376 100.923 34.2622 100.401 33.7125C99.8813 33.1617 99.6197 32.238 99.6197 30.9404V25.7573H98.0811V24.0428H99.6197V22.1601L101.921 21.4829V24.0428H104.504V25.7595Z" fill="white"/>
<path d="M116.157 29.1016C116.157 30.6821 115.693 31.9798 114.768 32.9945C113.797 34.0393 112.509 34.5601 110.903 34.5601C109.356 34.5601 108.124 34.0597 107.205 33.0588C106.286 32.058 105.827 30.7947 105.827 29.272C105.827 27.6786 106.3 26.3735 107.248 25.3587C108.194 24.3429 109.471 23.835 111.077 23.835C112.624 23.835 113.87 24.3354 114.809 25.3373C115.708 26.3092 116.157 27.5639 116.157 29.1016ZM113.726 29.1755C113.726 28.2272 113.518 27.4139 113.097 26.7356C112.606 25.9148 111.903 25.5055 110.993 25.5055C110.052 25.5055 109.336 25.9159 108.845 26.7356C108.424 27.415 108.216 28.2412 108.216 29.2184C108.216 30.1667 108.424 30.98 108.845 31.6572C109.352 32.4781 110.059 32.8874 110.973 32.8874C111.867 32.8874 112.569 32.4695 113.076 31.6358C113.508 30.9447 113.726 30.1228 113.726 29.1755Z" fill="white"/>
<path d="M123.773 26.0542C123.541 26.0124 123.294 25.991 123.034 25.991C122.21 25.991 121.573 26.2943 121.124 26.9018C120.734 27.4376 120.539 28.1148 120.539 28.9324V34.3276H118.196L118.218 27.2833C118.218 26.0982 118.189 25.0191 118.131 24.0462H120.171L120.257 26.0135H120.322C120.569 25.3374 120.959 24.793 121.494 24.3848C122.016 24.0172 122.579 23.834 123.187 23.834C123.404 23.834 123.599 23.849 123.773 23.8758V26.0542Z" fill="white"/>
<path d="M134.252 28.7001C134.252 29.1095 134.225 29.4545 134.166 29.7363H127.137C127.165 30.7521 127.504 31.529 128.157 32.0648C128.749 32.5438 129.515 32.7838 130.456 32.7838C131.497 32.7838 132.446 32.622 133.3 32.2973L133.667 33.8832C132.67 34.3075 131.491 34.5186 130.132 34.5186C128.497 34.5186 127.213 34.0493 126.279 33.1117C125.347 32.1741 124.88 30.915 124.88 29.3355C124.88 27.785 125.314 26.4938 126.183 25.4641C127.093 24.3646 128.323 23.8149 129.87 23.8149C131.39 23.8149 132.541 24.3646 133.322 25.4641C133.941 26.3374 134.252 27.4175 134.252 28.7001ZM132.018 28.1076C132.033 27.4303 131.88 26.8453 131.563 26.3513C131.157 25.7159 130.534 25.3987 129.696 25.3987C128.93 25.3987 128.306 25.7084 127.831 26.3299C127.44 26.8238 127.208 27.4164 127.137 28.1065H132.018V28.1076Z" fill="white"/>
<path d="M53.907 11.2946C53.907 12.5558 53.5191 13.5052 52.7443 14.1427C52.0266 14.731 51.0067 15.0257 49.6857 15.0257C49.0307 15.0257 48.4702 14.9978 48.0009 14.9421V8.051C48.613 7.95456 49.2724 7.90527 49.9846 7.90527C51.243 7.90527 52.1915 8.17209 52.8311 8.70572C53.5476 9.309 53.907 10.1716 53.907 11.2946ZM52.6926 11.3256C52.6926 10.5081 52.4706 9.8812 52.0266 9.44401C51.5826 9.00789 50.9342 8.7893 50.0802 8.7893C49.7176 8.7893 49.4087 8.81287 49.1527 8.86216V14.101C49.2944 14.1224 49.5538 14.132 49.9308 14.132C50.8122 14.132 51.4925 13.8931 51.9717 13.4152C52.4508 12.9373 52.6926 12.2408 52.6926 11.3256Z" fill="white"/>
<path d="M60.3462 12.3963C60.3462 13.1732 60.1187 13.8097 59.6637 14.309C59.1867 14.8223 58.5548 15.0784 57.7657 15.0784C57.0052 15.0784 56.3996 14.833 55.9479 14.3401C55.4973 13.8482 55.272 13.2278 55.272 12.4799C55.272 11.6976 55.5039 11.0558 55.9699 10.5575C56.4359 10.0592 57.0623 9.80957 57.8514 9.80957C58.6119 9.80957 59.223 10.055 59.6857 10.5468C60.1253 11.0247 60.3462 11.6419 60.3462 12.3963ZM59.1516 12.4327C59.1516 11.9666 59.0483 11.5669 58.8427 11.2337C58.601 10.8308 58.257 10.6293 57.8097 10.6293C57.347 10.6293 56.9953 10.8308 56.7535 11.2337C56.5469 11.5669 56.4447 11.973 56.4447 12.4531C56.4447 12.9192 56.548 13.3189 56.7535 13.6521C57.003 14.055 57.3503 14.2565 57.7987 14.2565C58.2383 14.2565 58.5834 14.0518 58.8317 13.6414C59.045 13.3017 59.1516 12.8988 59.1516 12.4327Z" fill="white"/>
<path d="M68.9801 9.9126L67.3591 14.9639H66.304L65.6325 12.7704C65.4621 12.2229 65.3237 11.6785 65.216 11.1384H65.1951C65.0951 11.6935 64.9566 12.2368 64.7786 12.7704L64.0653 14.9639H62.9981L61.4738 9.9126H62.6574L63.2432 12.3139C63.385 12.8819 63.5015 13.423 63.5949 13.9352H63.6158C63.7015 13.513 63.8433 12.9751 64.0433 12.3246L64.7786 9.91367H65.7171L66.4216 12.2732C66.5919 12.8486 66.7304 13.4026 66.837 13.9363H66.8689C66.9469 13.4166 67.0645 12.8626 67.2206 12.2732L67.8492 9.91367H68.9801V9.9126Z" fill="white"/>
<path d="M74.9511 14.9635H73.7993V12.0703C73.7993 11.1788 73.452 10.733 72.7552 10.733C72.4134 10.733 72.1376 10.8552 71.9233 11.1006C71.7112 11.346 71.6035 11.6353 71.6035 11.9664V14.9624H70.4517V11.3556C70.4517 10.912 70.4374 10.4309 70.4099 9.91009H71.4221L71.476 10.6998H71.5079C71.6419 10.4544 71.842 10.2519 72.1046 10.0901C72.4168 9.90152 72.7662 9.80615 73.1487 9.80615C73.6323 9.80615 74.0345 9.95831 74.3543 10.2637C74.7522 10.6377 74.9511 11.1959 74.9511 11.9375V14.9635Z" fill="white"/>
<path d="M78.1273 14.9638H76.9766V7.59473H78.1273V14.9638Z" fill="white"/>
<path d="M84.9082 12.3963C84.9082 13.1732 84.6807 13.8097 84.2258 14.309C83.7488 14.8223 83.1157 15.0784 82.3277 15.0784C81.5661 15.0784 80.9606 14.833 80.51 14.3401C80.0594 13.8482 79.8341 13.2278 79.8341 12.4799C79.8341 11.6976 80.066 11.0558 80.5319 10.5575C80.9979 10.0592 81.6244 9.80957 82.4124 9.80957C83.174 9.80957 83.7839 10.055 84.2477 10.5468C84.6873 11.0247 84.9082 11.6419 84.9082 12.3963ZM83.7125 12.4327C83.7125 11.9666 83.6092 11.5669 83.4037 11.2337C83.163 10.8308 82.8179 10.6293 82.3717 10.6293C81.9079 10.6293 81.5562 10.8308 81.3155 11.2337C81.1089 11.5669 81.0067 11.973 81.0067 12.4531C81.0067 12.9192 81.11 13.3189 81.3155 13.6521C81.565 14.055 81.9123 14.2565 82.3607 14.2565C82.8003 14.2565 83.1443 14.0518 83.3927 13.6414C83.607 13.3017 83.7125 12.8988 83.7125 12.4327Z" fill="white"/>
<path d="M90.4825 14.9637H89.4483L89.3626 14.3819H89.3307C88.9768 14.8458 88.4724 15.0784 87.8174 15.0784C87.3283 15.0784 86.9326 14.9251 86.6348 14.6208C86.3645 14.3444 86.2293 14.0004 86.2293 13.5921C86.2293 12.9749 86.493 12.5045 87.0239 12.1788C87.5536 11.853 88.2987 11.6933 89.2582 11.7008V11.6066C89.2582 10.9411 88.8999 10.6089 88.1822 10.6089C87.6712 10.6089 87.2206 10.7343 86.8315 10.9829L86.5974 10.2457C87.0788 9.9553 87.6734 9.80957 88.3746 9.80957C89.7286 9.80957 90.4077 10.5061 90.4077 11.8991V13.7593C90.4077 14.264 90.433 14.6658 90.4825 14.9637ZM89.2867 13.2278V12.4488C88.0163 12.4274 87.381 12.767 87.381 13.4668C87.381 13.7304 87.4536 13.9275 87.6019 14.0593C87.7503 14.1911 87.9393 14.2565 88.1646 14.2565C88.4174 14.2565 88.6537 14.1783 88.8691 14.0229C89.0856 13.8664 89.2186 13.6682 89.2681 13.425C89.2802 13.3703 89.2867 13.3039 89.2867 13.2278Z" fill="white"/>
<path d="M97.0272 14.9638H96.0051L95.9512 14.1526H95.9193C95.5929 14.7698 95.0368 15.0784 94.2554 15.0784C93.6312 15.0784 93.1113 14.8395 92.6992 14.3615C92.2871 13.8836 92.0816 13.2632 92.0816 12.5013C92.0816 11.6837 92.3047 11.0215 92.7531 10.5158C93.1872 10.0443 93.7191 9.80854 94.3521 9.80854C95.0478 9.80854 95.5347 10.0368 95.8116 10.4943H95.8336V7.59473H96.9865V13.6029C96.9865 14.0947 96.9997 14.548 97.0272 14.9638ZM95.8336 12.8335V11.9913C95.8336 11.8456 95.8226 11.7277 95.8017 11.6377C95.7369 11.3676 95.5973 11.1405 95.3852 10.9572C95.1709 10.774 94.9126 10.6819 94.6148 10.6819C94.1851 10.6819 93.8488 10.8479 93.6015 11.1812C93.3564 11.5144 93.2322 11.9398 93.2322 12.4595C93.2322 12.9589 93.3498 13.3639 93.5861 13.6758C93.8356 14.0079 94.1719 14.174 94.5928 14.174C94.9709 14.174 95.2731 14.0358 95.5028 13.7583C95.7248 13.5022 95.8336 13.1936 95.8336 12.8335Z" fill="white"/>
<path d="M106.878 12.3963C106.878 13.1732 106.65 13.8097 106.195 14.309C105.718 14.8223 105.087 15.0784 104.297 15.0784C103.538 15.0784 102.932 14.833 102.479 14.3401C102.029 13.8482 101.804 13.2278 101.804 12.4799C101.804 11.6976 102.035 11.0558 102.501 10.5575C102.967 10.0592 103.594 9.80957 104.384 9.80957C105.143 9.80957 105.756 10.055 106.217 10.5468C106.657 11.0247 106.878 11.6419 106.878 12.3963ZM105.684 12.4327C105.684 11.9666 105.581 11.5669 105.375 11.2337C105.132 10.8308 104.79 10.6293 104.341 10.6293C103.88 10.6293 103.528 10.8308 103.285 11.2337C103.078 11.5669 102.976 11.973 102.976 12.4531C102.976 12.9192 103.079 13.3189 103.285 13.6521C103.534 14.055 103.882 14.2565 104.33 14.2565C104.77 14.2565 105.116 14.0518 105.364 13.6414C105.576 13.3017 105.684 12.8988 105.684 12.4327Z" fill="white"/>
<path d="M113.071 14.9635H111.92V12.0703C111.92 11.1788 111.573 10.733 110.875 10.733C110.533 10.733 110.257 10.8552 110.044 11.1006C109.831 11.346 109.724 11.6353 109.724 11.9664V14.9624H108.571V11.3556C108.571 10.912 108.558 10.4309 108.531 9.91009H109.542L109.596 10.6998H109.627C109.763 10.4544 109.963 10.2519 110.224 10.0901C110.537 9.90152 110.886 9.80615 111.269 9.80615C111.752 9.80615 112.154 9.95831 112.474 10.2637C112.873 10.6377 113.071 11.1959 113.071 11.9375V14.9635Z" fill="white"/>
<path d="M120.822 10.7535H119.554V13.2073C119.554 13.8309 119.779 14.1428 120.225 14.1428C120.432 14.1428 120.603 14.1256 120.739 14.0903L120.768 14.9421C120.541 15.0257 120.242 15.0675 119.874 15.0675C119.419 15.0675 119.065 14.9325 118.809 14.6625C118.552 14.3924 118.424 13.9381 118.424 13.3005V10.7535H117.667V9.91229H118.424V8.98648L119.553 8.6543V9.91122H120.821V10.7535H120.822Z" fill="white"/>
<path d="M126.919 14.9638H125.767V12.092C125.767 11.1866 125.419 10.7333 124.724 10.7333C124.189 10.7333 123.825 10.9958 123.625 11.5209C123.591 11.6312 123.571 11.7663 123.571 11.9248V14.9627H122.42V7.59473H123.571V10.639H123.593C123.955 10.085 124.475 9.80854 125.149 9.80854C125.626 9.80854 126.02 9.9607 126.334 10.2661C126.724 10.6465 126.919 11.2123 126.919 11.9602V14.9638Z" fill="white"/>
<path d="M133.209 12.199C133.209 12.4004 133.194 12.5698 133.166 12.708H129.712C129.727 13.2073 129.892 13.5877 130.212 13.8513C130.504 14.0871 130.881 14.2049 131.343 14.2049C131.854 14.2049 132.32 14.1256 132.74 13.966L132.92 14.7461C132.429 14.9539 131.851 15.0579 131.181 15.0579C130.379 15.0579 129.747 14.8275 129.29 14.3667C128.831 13.906 128.603 13.2877 128.603 12.5119C128.603 11.75 128.815 11.1157 129.243 10.6099C129.689 10.0698 130.292 9.7998 131.054 9.7998C131.799 9.7998 132.365 10.0698 132.748 10.6099C133.056 11.0385 133.209 11.5689 133.209 12.199ZM132.11 11.9086C132.119 11.5754 132.043 11.2882 131.887 11.046C131.687 10.7342 131.383 10.5777 130.97 10.5777C130.595 10.5777 130.288 10.7299 130.054 11.0353C129.863 11.2785 129.749 11.5689 129.712 11.9086H132.11Z" fill="white"/>
</svg>
