<svg width="100" height="16" viewBox="0 0 100 16" fill="none" xmlns="http://www.w3.org/2000/svg">
<path d="M19.2351 7.88788C19.2351 10.3902 17.872 12.131 16.004 12.131C14.1108 12.131 12.7729 10.3902 12.7729 7.88788V0H9.61755V7.88788C9.61755 10.3902 8.27968 12.131 6.38646 12.131C4.51848 12.131 3.15536 10.3902 3.15536 7.88788V0H0V7.37109C0 11.9678 2.62526 15.1774 6.38646 15.1774C8.45638 15.1774 10.1224 14.1982 11.1826 12.5118C12.2428 14.1982 13.9088 15.1774 16.004 15.1774C19.7652 15.1774 22.3905 11.9678 22.3905 7.37109V0H19.2351V7.88788Z" fill="#283844"/>
<path d="M85.3704 14.8782V0H82.2402V14.8782H85.3704Z" fill="#283844"/>
<path d="M87.5552 0V3.01915H92.1999V14.8782H95.3301V3.01915H100V0H87.5552Z" fill="#283844"/>
<path d="M32.4769 15.6024C36.8691 15.6024 40.0245 12.3112 40.0245 7.82331C40.0245 3.36258 36.8691 0.0986328 32.4769 0.0986328C28.1351 0.0986328 24.9797 3.36258 24.9797 7.85051C24.9797 12.3384 28.1099 15.6024 32.4769 15.6024ZM32.5021 12.556C29.9778 12.556 28.1351 10.6793 28.1351 7.82331C28.1351 4.99456 29.9778 3.17218 32.4769 3.17218C35.0264 3.17218 36.8439 4.99456 36.8439 7.85051C36.8439 10.6793 35.0264 12.556 32.5021 12.556Z" fill="#283844"/>
<path d="M45.7527 7.41532C45.7527 4.91296 47.242 3.17218 49.3624 3.17218C51.5081 3.17218 52.9974 4.91296 52.9974 7.41532V15.3032H56.1275V7.90491C56.1275 3.30818 53.3508 0.0986328 49.3624 0.0986328C45.3993 0.0986328 42.6226 3.30818 42.6226 7.90491V15.3032H45.7527V7.41532Z" fill="#283844"/>
<path d="M72.5352 9.18329C72.6362 8.2857 72.6867 7.76891 72.6867 7.17052C72.6867 3.11779 69.9604 0.153031 66.0225 0.153031C61.6555 0.153031 58.7273 3.38978 58.7273 7.85051C58.7273 12.3384 61.8575 15.5752 66.2245 15.5752C68.6983 15.5752 70.541 14.5416 71.9041 12.9912L69.91 11.0601C68.976 12.148 67.9158 12.556 66.4012 12.556C64.0788 12.556 62.3623 11.3049 61.9584 9.18329H72.5352ZM65.9973 3.14498C67.9158 3.14498 69.2536 4.20577 69.607 6.38173H62.0089C62.4128 4.39617 63.9021 3.14498 65.9973 3.14498Z" fill="#283844"/>
</svg>
