<svg width="30" height="30" viewBox="0 0 30 30" fill="none" xmlns="http://www.w3.org/2000/svg">
<path d="M13 11L13.5547 10.1679C13.2478 9.96338 12.8533 9.94431 12.5281 10.1183C12.203 10.2923 12 10.6312 12 11H13ZM13 19H12C12 19.3688 12.203 19.7077 12.5281 19.8817C12.8533 20.0557 13.2478 20.0366 13.5547 19.832L13 19ZM19 15L19.5547 15.832C19.8329 15.6466 20 15.3344 20 15C20 14.6656 19.8329 14.3534 19.5547 14.1679L19 15ZM15 28C7.82033 28 2.00003 22.1797 2.00002 15H1.88679e-05C3.00327e-05 23.2843 6.71575 30 15 30L15 28ZM28 15C28 22.1797 22.1797 28 15 28L15 30C23.2843 30 30 23.2843 30 15H28ZM15 2C22.1797 2 28 7.8203 28 15H30C30 6.71573 23.2842 0 15 0L15 2ZM15 0C6.71571 0 7.70315e-06 6.71573 1.88679e-05 15H2.00002C2.00001 7.8203 7.82029 2 15 2L15 0ZM12 11L12 19H14L14 11H12ZM13.5547 19.832L19.5547 15.832L18.4453 14.1679L12.4453 18.1679L13.5547 19.832ZM19.5547 14.1679L13.5547 10.1679L12.4453 11.832L18.4453 15.832L19.5547 14.1679Z" fill="white"/>
</svg>
